<?xml version="1.0" encoding="UTF-8"?>
<svg id="Layer_2" data-name="Layer 2" xmlns="http://www.w3.org/2000/svg" viewBox="0 0 921.79 815.85">
  <defs>
    <style>
      .cls-1 {
        fill: #5ecca5;
      }
    </style>
  </defs>
  <g id="Layer_1-2" data-name="Layer 1">
    <path class="cls-1" d="M213.27,151.7l142.33,117.05c2.23.61,6.81-3.51,9.27-4.81,18.33-9.71,36.02-13.14,56.64-8.42,7.47,1.71,13.2,5.05,20.05,7.65l89.72-90.22c.58-1.16-6.42-14.62-7.45-17.34-29.73-78.53,56.33-150.33,128.41-106.04,36.6,22.49,51.26,68.24,34.82,108.21-20.87,50.72-80.57,68.31-127.44,41.57l-90.3,92.3c8.31,11.83,10.59,26.94,11.51,41.21l248.98,42.31c3.95-11.24,10.06-22.2,17.97-31.2,49.74-56.6,144.11-37.08,168.27,33.97,34.84,102.45-97.36,179.58-169.85,95.53-13.73-15.92-22.58-38.8-22.81-59.91-30.33-5.02-60.58-10.67-90.9-15.78-42.24-7.12-84.96-14.03-127.2-20.59-10.42-1.62-23.27-5.21-33.32-5.96-5.5-.41-6.53,4.78-9.85,8.35-11.25,12.1-24.31,21.95-40.99,25.15l-.86.97-37.15,223.39.65,1.37c29.69,13.08,51.71,39.99,57.31,72.19,12.41,71.32-54.55,130.4-123.81,108.62-31.97-10.05-55.88-35.15-64.16-67.7-15.32-60.24,29.43-119.67,91.46-119.91l35.93-220.46c-13.76-3.62-25.15-12.19-34.7-22.43-2.34-2.52-3.97-7.74-7.77-6.22l-105.32,40.18-.74,1.5c3.5,19.13-4.61,41.74-18.8,54.85-30.53,28.2-79.06,20.21-99.03-16.09-29.38-53.4,29.95-115.36,84.47-86.07,3.72,2,14.28,10.94,16.82,10.8l111.24-42.89c-.03-12.62,1.32-24.14,5.56-36.02l-158.61-130.73-1.59.06c-28.43,30.8-74.11,39.06-112.44,22.16C-20.6,156.93-19.57,42.26,60.94,7.95c51.38-21.9,111.49,3.09,132.46,54.52,9.31,22.83,9.11,50.02,1.15,73.22l18.72,16ZM142.97,144.73c25.62-25.65,24.67-67.39-3.35-90.81C87.45,10.3,14.75,70.37,46.91,130.65c18.25,34.2,68.56,41.61,96.06,14.08ZM640.84,158.3c19.55-20.23,17.86-52.58-3.29-70.86-39.9-34.48-97.07,9.83-75.68,57.3,13.68,30.35,55.81,37.53,78.97,13.57ZM380.04,359.72c37.5,30.55,86.38-27.81,46.49-58.87-39.11-30.46-84.19,28.16-46.49,58.87ZM814.36,350.6c-39.57,4.46-64.18,50.01-46.07,85.59,23.41,45.99,89.87,44.56,108.96-3.53,17.12-43.13-16.93-87.25-62.88-82.06ZM167.03,400.94c-18.42,2.22-28.05,24.45-15.65,39.21,15.44,18.38,44.84,5.47,42.13-18.16-1.37-11.97-14.57-22.49-26.47-21.06ZM386.71,679.12c-25.85-26.1-70.73-20.22-89.36,11.17-25.58,43.11,12.96,95.66,61.68,84.85,43.61-9.68,59.05-64.35,27.68-96.03Z"/>
  </g>
</svg>